<svg xmlns="http://www.w3.org/2000/svg" viewBox="0 0 24 24"><circle cx="12" cy="12" r="3" stroke="#3a3a4a" stroke-width="1.8" stroke-linecap="round" stroke-linejoin="round" fill="none"/><path d="M12 3 l1 3 2 0.8 2.8 -1.4 1.8 1.8 -1.4 2.8 0.8 2 3 1 0 2.5 -3 1 -0.8 2 1.4 2.8 -1.8 1.8 -2.8 -1.4 -2 0.8 -1 3 -2.5 0 -1 -3 -2 -0.8 -2.8 1.4 -1.8 -1.8 1.4 -2.8 -0.8 -2 -3 -1 0 -2.5 3 -1 0.8 -2 -1.4 -2.8 1.8 -1.8 2.8 1.4 2 -0.8 1 -3 Z" stroke="#3a3a4a" stroke-width="1.2" stroke-linecap="round" stroke-linejoin="round" fill="none"/></svg>
