<svg xmlns="http://www.w3.org/2000/svg" viewBox="0 0 24 24"><path d="M21 12.2 c0 -0.7 -0.1 -1.4 -0.2 -2 H12 v3.8 h5 a4.3 4.3 0 0 1 -1.9 2.8 v2.3 h3 C19.9 17.4 21 15 21 12.2 Z" fill="#4285F4"/><path d="M12 21 c2.4 0 4.5 -0.8 6 -2.2 l-3 -2.3 a5.4 5.4 0 0 1 -8 -2.8 H4 v2.4 A9 9 0 0 0 12 21 Z" fill="#34A853"/><path d="M7 13.7 a5.4 5.4 0 0 1 0 -3.4 V7.9 H4 a9 9 0 0 0 0 8.2 Z" fill="#FBBC05"/><path d="M12 6.6 c1.3 0 2.5 0.4 3.4 1.3 L18 5.3 A9 9 0 0 0 4 7.9 l3 2.4 A5.4 5.4 0 0 1 12 6.6 Z" fill="#EA4335"/></svg>
